<?xml version="1.0" encoding="UTF-8" standalone="no"?>
<!-- Generator: Adobe Illustrator 19.0.0, SVG Export Plug-In . SVG Version: 6.00 Build 0)  -->

<svg
   xmlns:dc="http://purl.org/dc/elements/1.1/"
   xmlns:cc="http://creativecommons.org/ns#"
   xmlns:rdf="http://www.w3.org/1999/02/22-rdf-syntax-ns#"
   xmlns:svg="http://www.w3.org/2000/svg"
   xmlns="http://www.w3.org/2000/svg"
   xmlns:sodipodi="http://sodipodi.sourceforge.net/DTD/sodipodi-0.dtd"
   xmlns:inkscape="http://www.inkscape.org/namespaces/inkscape"
   version="1.1"
   id="Capa_1"
   x="0px"
   y="0px"
   viewBox="0 0 512 512"
   style="enable-background:new 0 0 512 512;"
   xml:space="preserve"
   sodipodi:docname="happy.svg"
   inkscape:version="0.92.5 (2060ec1f9f, 2020-04-08)"><metadata
   id="metadata61"><rdf:RDF><cc:Work
       rdf:about=""><dc:format>image/svg+xml</dc:format><dc:type
         rdf:resource="http://purl.org/dc/dcmitype/StillImage" /></cc:Work></rdf:RDF></metadata><defs
   id="defs59" /><sodipodi:namedview
   pagecolor="#ffffff"
   bordercolor="#666666"
   borderopacity="1"
   objecttolerance="10"
   gridtolerance="10"
   guidetolerance="10"
   inkscape:pageopacity="0"
   inkscape:pageshadow="2"
   inkscape:window-width="1864"
   inkscape:window-height="1016"
   id="namedview57"
   showgrid="false"
   inkscape:zoom="0.4609375"
   inkscape:cx="256"
   inkscape:cy="256"
   inkscape:window-x="56"
   inkscape:window-y="27"
   inkscape:window-maximized="1"
   inkscape:current-layer="Capa_1" />
<g
   id="g6">
	<g
   id="g4">
		<path
   d="M437.019,74.981C388.668,26.629,324.38,0,256,0S123.332,26.629,74.981,74.981C26.628,123.332,0,187.62,0,256    s26.628,132.668,74.981,181.019C123.332,485.371,187.62,512,256,512s132.668-26.629,181.019-74.981    C485.372,388.668,512,324.38,512,256S485.372,123.332,437.019,74.981z M256,481.524c-124.354,0-225.524-101.17-225.524-225.524    S131.646,30.476,256,30.476S481.524,131.646,481.524,256S380.354,481.524,256,481.524z"
   id="path2"
   style="fill:#6f7c91" />
	</g>
</g>
<g
   id="g12">
	<g
   id="g10">
		<path
   d="M200.622,188.396c-24.953-24.955-65.556-24.953-90.509,0c-5.951,5.95-5.951,15.599,0,21.55    c5.952,5.95,15.601,5.95,21.551,0c13.072-13.071,34.34-13.07,47.41,0c2.976,2.976,6.875,4.464,10.774,4.464    s7.8-1.488,10.774-4.464C206.573,203.995,206.573,194.347,200.622,188.396z"
   id="path8"
   style="fill:#6f7c91;fill-opacity:1" />
	</g>
</g>
<g
   id="g18">
	<g
   id="g16">
		<path
   d="M401.884,188.396c-24.953-24.953-65.556-24.955-90.509,0c-5.951,5.95-5.951,15.599,0,21.55    c5.952,5.95,15.601,5.95,21.551,0c13.07-13.071,34.338-13.072,47.41,0c2.976,2.976,6.875,4.464,10.774,4.464    s7.8-1.488,10.774-4.464C407.835,203.995,407.835,194.347,401.884,188.396z"
   id="path14"
   style="fill:#6f7c91;fill-opacity:1" />
	</g>
</g>
<g
   id="g24">
	<g
   id="g22">
		<path
   d="M391.111,267.175H120.889c-8.416,0-15.238,6.823-15.238,15.238c0,82.902,67.447,150.349,150.349,150.349    s150.349-67.447,150.349-150.349C406.349,273.997,399.527,267.175,391.111,267.175z M256,402.286    c-60.938,0-111.402-45.703-118.909-104.635H374.91C367.402,356.583,316.938,402.286,256,402.286z"
   id="path20"
   style="fill:#6f7c91;fill-opacity:1" />
	</g>
</g>
<g
   id="g26">
</g>
<g
   id="g28">
</g>
<g
   id="g30">
</g>
<g
   id="g32">
</g>
<g
   id="g34">
</g>
<g
   id="g36">
</g>
<g
   id="g38">
</g>
<g
   id="g40">
</g>
<g
   id="g42">
</g>
<g
   id="g44">
</g>
<g
   id="g46">
</g>
<g
   id="g48">
</g>
<g
   id="g50">
</g>
<g
   id="g52">
</g>
<g
   id="g54">
</g>
</svg>